<?xml version="1.0" standalone="no"?>
<!DOCTYPE svg PUBLIC "-//W3C//DTD SVG 20010904//EN"
 "http://www.w3.org/TR/2001/REC-SVG-20010904/DTD/svg10.dtd">
<svg version="1.0" xmlns="http://www.w3.org/2000/svg"
 width="512.000000pt" height="512.000000pt" viewBox="0 0 512.000000 512.000000"
 preserveAspectRatio="xMidYMid meet">
<metadata>
Created by potrace 1.14, written by Peter Selinger 2001-2017
</metadata>
<g transform="translate(0.000000,512.000000) scale(0.100000,-0.100000)"
fill="#000000" stroke="none">
<path d="M3509 3458 c-17 -24 -56 -85 -87 -135 -63 -103 -47 -94 -182 -98 -50
-1 -70 -9 -70 -29 0 -26 42 -66 81 -77 22 -7 38 -15 37 -19 -2 -4 -38 -76 -80
-161 -42 -85 -93 -194 -112 -242 -64 -159 -174 -297 -237 -297 -37 0 -44 26
-25 100 18 69 44 123 121 250 109 179 133 246 116 323 -13 54 -53 92 -82 76
-12 -6 -30 -26 -41 -46 l-21 -35 -24 30 c-112 144 -413 -37 -590 -354 -111
-197 -250 -323 -378 -341 -89 -12 -131 50 -122 175 3 41 7 76 9 78 2 2 29 -6
59 -17 133 -51 271 19 359 182 28 52 34 75 35 124 0 72 -21 106 -103 162 -47
33 -62 38 -111 38 -167 0 -375 -219 -431 -454 -23 -97 -159 -270 -225 -287
-42 -10 -58 11 -53 76 5 65 32 128 133 305 92 162 105 205 81 269 -44 114
-138 112 -294 -8 l-57 -43 -2 39 c-3 48 -29 104 -51 113 -24 9 -64 -40 -154
-192 -98 -164 -194 -351 -213 -416 -33 -112 -6 -218 58 -225 25 -3 30 5 106
160 102 211 163 304 270 408 84 82 171 143 171 120 0 -6 -28 -57 -62 -113
-106 -176 -168 -330 -168 -419 0 -18 10 -54 23 -78 30 -60 80 -85 167 -84 79
0 149 30 231 97 l57 46 23 -33 c28 -41 89 -83 144 -97 22 -7 77 -9 124 -6 72
4 95 11 165 45 44 23 96 54 115 70 l35 29 24 -48 c39 -79 120 -114 209 -90 23
6 72 32 109 56 37 25 68 45 70 45 2 0 4 -6 4 -14 0 -8 15 -30 33 -49 76 -81
203 -70 331 27 48 37 48 37 63 16 74 -106 206 -120 330 -36 l38 26 23 -30 c42
-54 139 -62 225 -19 20 11 37 17 37 15 0 -28 -33 -57 -105 -94 -162 -83 -263
-179 -319 -302 -47 -105 -42 -183 18 -278 94 -149 255 -51 413 253 31 60 78
159 104 220 l47 110 99 50 c198 100 312 217 313 320 0 68 -40 70 -85 5 -35
-50 -156 -166 -219 -210 -46 -31 -48 -32 -41 -9 4 13 64 137 133 274 126 250
126 250 127 322 0 66 -2 75 -28 100 -26 26 -29 27 -54 13 -17 -10 -54 -67
-110 -170 -231 -424 -357 -592 -409 -549 -40 33 16 188 147 406 84 139 97 205
56 278 -32 56 -56 57 -99 3 -84 -105 -231 -383 -269 -510 -33 -108 -133 -206
-201 -196 -36 5 -53 66 -39 143 12 67 96 244 214 450 l74 130 69 3 c93 3 114
9 114 31 0 28 -37 69 -76 83 -31 11 -34 15 -28 38 25 93 21 164 -12 201 -25
28 -40 24 -75 -23z m-1379 -451 c0 -54 -94 -198 -162 -247 -41 -30 -91 -39
-103 -19 -9 13 47 106 102 171 89 103 163 147 163 95z m694 -37 c-1 -114 -207
-465 -314 -538 -51 -34 -64 -27 -68 36 -7 117 81 290 226 444 112 119 157 136
156 58z m780 -941 c-122 -245 -195 -335 -180 -221 11 83 79 206 162 290 41 41
77 73 80 70 3 -3 -25 -66 -62 -139z"/>
</g>
</svg>
